# xmcd
#
# Track frame offsets:
#	150
#	4783
#	20667
#	33058
#	58238
#	71112
#	83357
#	97477
#	118428
#	136823
#
# Disc length: 2217 seconds
#
# Revision: 1
# Processed by: cddbd v1.5.1PL0 Copyright (c) Steve Scherf et al.
# Submitted via: audiograbber 1.81.03
#
DISCID=8808a70a
DTITLE=Aaron`Wrixon - The`Year Of Longing Dangerously
DYEAR=2004
DGENRE=Alt Country
TTITLE0=You Should Be With Me Pt 1
TTITLE1=Too Busy To Be Blue
TTITLE2=Hey Beautiful
TTITLE3=I Don't Love Her
TTITLE4=Cards And Letters
TTITLE5=The Careful Touch
TTITLE6=Downstairs Neighbor
TTITLE7=I Count The Hours
TTITLE8=You Should Be With Me Pt 2
TTITLE9=For You
EXTD=
EXTT0=
EXTT1=
EXTT2=
EXTT3=
EXTT4=
EXTT5=
EXTT6=
EXTT7=
EXTT8=
EXTT9=
PLAYORDER=
